<svg id="Laag_1" data-name="Laag 1" xmlns="http://www.w3.org/2000/svg" viewBox="0 0 188.89 188.89">
  <defs>
    <style>
      .cls-1, .cls-5 {
        fill: #0057a5;
      }

      .cls-2, .cls-6 {
        fill: #fff;
      }

      .cls-3, .cls-4 {
        fill: none;
      }

      .cls-3, .cls-4, .cls-5, .cls-6 {
        stroke: #0057a5;
        stroke-miterlimit: 10;
      }

      .cls-3, .cls-5, .cls-6 {
        stroke-width: 2px;
      }
    </style>
  </defs>
  <title>il_icon hydromt_ I1000642-002_rs_v3</title>
  <circle class="cls-1" cx="94.45" cy="94.45" r="94.45"/>
  <g>
    <path class="cls-2" d="M140.49,125.61,133,124.32l-12.09-2.71-10.77-2.15h-.45l-24.44-5.29L73,111.52l-8.26,1.7A6.79,6.79,0,0,1,61,114.59c-2.12,0-8.69,2.76-13.24,4s-20.13,18.11-20.13,18.11v15l83.14,16.42,43.32-23.4V127.52Zm-22.66-6.75v0h0Z"/>
    <polyline class="cls-3" points="27.59 136.73 106.76 149.9 154.05 127.52"/>
  </g>
  <path class="cls-4" d="M40.27,122.6s3.5,4.87,4.95,4.65-.11-2.79,1.79-3.46,6.8,3.46,6.47,4.35-7.06-1.33-6.6,2.23,6.48.9,10.94,2.35,9.82-.9,12.05,0,2.9-.48,6.25.48,6,1.3,6.57,4.2S84,145,84,145"/>
  <path class="cls-5" d="M113.3,146.17l-7.4,3.73-11.54-2.37v-3.45a12.38,12.38,0,0,0-1.88-2.56c-.39-.39,0-2.76,0-3.25a7.1,7.1,0,0,0-2.06-3.55c-1.38-1.38-3.94-2.27-5.82-4.06S78.48,119.42,76.31,117s-8.57-3.34-8.57-3.34l3.05-3.07L82.16,113s2.93,7.11,2.93,7.25v1.24l9.27,8.09s3.25,6.9,4.29,7.19a32.14,32.14,0,0,1,6.26,3.36C105.41,140.72,111.12,146,113.3,146.17Z"/>
  <path class="cls-4" d="M81.21,120.84c-.6,1.38-.46,3-1.82,4-.88.61-2.35.18-3,1a3.65,3.65,0,0,0-.54,2c-.12.89-.55,1-1,1.67-.71.93-.32,2.21-.32,3.29"/>
  <path class="cls-4" d="M90.88,128.29a19.56,19.56,0,0,0,3.93,1.25,12.43,12.43,0,0,1,2.83,1,6.26,6.26,0,0,0,5.76.47,6.62,6.62,0,0,1,2.32-.47,3.84,3.84,0,0,1,1.76.46c1.52.63,3.14.27,4.69,0,1.35-.24,2.8.38,4.12,0,.22-.06.34-.22.61-.19.54.06,1,.68,1.58.83s1.43.17,2.12.29a10.21,10.21,0,0,1,2.42.84c.73.32,1.51.56,2.21.86,0,0,0,.06-.11,0a4.36,4.36,0,0,1,1.73.72,11.82,11.82,0,0,0,3.13,1.07,13.2,13.2,0,0,0,2.78.82"/>
  <path class="cls-4" d="M115.84,130.9c.24.17.8.09,1.08.09a14.44,14.44,0,0,0,2.46-.24c.78-.14,1.54-.37,2.32-.47.47-.06,1-.17,1.43-.21,1.07-.09,2.1.21,3.15-.18,1.27-.47,2.39-1.29,3.68-1.73,1.7-.57,3.45-.37,5.22-.53,1.27-.12,2.52-.34,3.79-.52a6.92,6.92,0,0,0,1.75-.38,2.67,2.67,0,0,0,1.33-1.44"/>
  <polygon class="cls-6" points="77.56 61.68 161.97 78.63 114.9 103.49 30.7 86.92 77.56 61.68"/>
  <g>
    <g>
      <line class="cls-4" x1="161.97" y1="78.63" x2="114.9" y2="103.49"/>
      <line class="cls-4" x1="154.29" y1="77.09" x2="107.24" y2="101.98"/>
      <line class="cls-4" x1="146.62" y1="75.55" x2="99.59" y2="100.48"/>
      <line class="cls-4" x1="138.94" y1="74" x2="91.94" y2="98.97"/>
      <line class="cls-4" x1="131.27" y1="72.46" x2="84.28" y2="97.46"/>
      <line class="cls-4" x1="123.6" y1="70.92" x2="76.63" y2="95.96"/>
      <line class="cls-4" x1="115.92" y1="69.38" x2="68.97" y2="94.45"/>
      <line class="cls-4" x1="108.25" y1="67.84" x2="61.32" y2="92.94"/>
      <line class="cls-4" x1="100.58" y1="66.3" x2="53.66" y2="91.44"/>
      <line class="cls-4" x1="92.9" y1="64.76" x2="46.01" y2="89.93"/>
      <line class="cls-4" x1="85.23" y1="63.22" x2="38.35" y2="88.42"/>
      <line class="cls-4" x1="77.56" y1="61.68" x2="30.7" y2="86.92"/>
    </g>
    <g>
      <line class="cls-4" x1="114.9" y1="103.49" x2="30.7" y2="86.92"/>
      <line class="cls-4" x1="120.78" y1="100.38" x2="36.56" y2="83.76"/>
      <line class="cls-4" x1="126.67" y1="97.27" x2="42.41" y2="80.61"/>
      <line class="cls-4" x1="132.55" y1="94.17" x2="48.27" y2="77.45"/>
      <line class="cls-4" x1="138.43" y1="91.06" x2="54.13" y2="74.3"/>
      <line class="cls-4" x1="144.32" y1="87.95" x2="59.98" y2="71.14"/>
      <line class="cls-4" x1="150.2" y1="84.84" x2="65.84" y2="67.99"/>
      <line class="cls-4" x1="156.08" y1="81.74" x2="71.7" y2="64.83"/>
      <line class="cls-4" x1="161.97" y1="78.63" x2="77.56" y2="61.68"/>
    </g>
  </g>
  <polygon class="cls-6" points="77.56 40.02 161.97 56.97 114.9 81.83 30.7 65.26 77.56 40.02"/>
  <polygon class="cls-2" points="103.52 111.71 103.52 111.74 103.51 111.71 103.52 111.71"/>
  <path class="cls-4" d="M143.82,53.32l-3.9,1.84-5.38-.95,3.71-2-6-1.21L114.9,60.17l-6-1.19,5.28,8.42,10,9.55L162,57Zm-20.66,5.2,3.62-1.26,5.49,1.67-3.69,1.51ZM131,69l-6.48-2.92L128.37,65l6.17,1.6ZM142.69,58.2l4.08-1.47,5,1.1-3.12,1.53Z"/>
  <path class="cls-4" d="M92.74,63.44c-4.52,2.22-26.54,1.16-33.88.7s-11.54-6.81-11.54-6.81l17.24-9.21,31.05,6.11C95.69,56,96.88,61.4,92.74,63.44Z"/>
  <polygon class="cls-2" points="103.52 111.71 103.52 111.74 103.51 111.71 103.52 111.71"/>
  <g>
    <polygon class="cls-2" points="57.85 88.14 73.77 88.14 73.77 50.56 109.27 57.52 109.27 88.14 125.38 88.14 91.49 120.04 57.85 88.14"/>
    <path class="cls-1" d="M75.27,52.38l32.5,6.37V89.64H121.6l-13.83,13L91.49,118l-16.1-15.26L61.61,89.64H75.27V52.38m-3-3.64v37.9H54.09l5.46,5.18,13.78,13.06,16.1,15.27,2,1.95,2.07-1.94,16.27-15.31,13.83-13,5.51-5.19H110.77V56.29l-2.43-.48L75.85,49.44l-3.58-.7Z"/>
  </g>
  <path class="cls-1" d="M102.19,79.47a3,3,0,0,1,.86-2.09l-.59-.6a2.93,2.93,0,0,1-2.09.87,3,3,0,0,1-3-3h-.84a3,3,0,0,1-5,2.09l-.6.6a3,3,0,0,1-2.09,5.05v.84a3,3,0,0,1,3,3,2.91,2.91,0,0,1-.87,2.09l.6.6a3,3,0,0,1,5,2.1h.84a3,3,0,0,1,5.06-2.1l.59-.59a3,3,0,0,1,2.1-5.06v-.84A3,3,0,0,1,102.19,79.47ZM97,85.81a3,3,0,1,1,3-3A3,3,0,0,1,97,85.81Z"/>
  <path class="cls-1" d="M89.38,88.81a2.94,2.94,0,0,1,.19-2.26l-.75-.39a3,3,0,0,1-1.73,1.47,3,3,0,0,1-3.72-1.92l-.81.26a3,3,0,0,1-4.17,3.53l-.38.76a3,3,0,0,1-.45,5.45l.25.8a3,3,0,0,1,3.54,4.17h0l.75.39a3,3,0,0,1,5.45.45l.8-.26a3,3,0,0,1,4.17-3.54l.39-.74a3,3,0,0,1-1.47-1.74,3,3,0,0,1,1.92-3.72l-.25-.8A3,3,0,0,1,89.38,88.81Zm-3,7.62a3,3,0,1,1,1.92-3.72A3,3,0,0,1,86.36,96.43Z"/>
  <polygon class="cls-6" points="77.56 18.36 161.97 35.3 114.9 60.17 30.7 43.59 77.56 18.36"/>
  <path class="cls-4" d="M63.08,50C66,47.08,70,44,76,43.79a52.39,52.39,0,0,0,16.73-3.92,31.25,31.25,0,0,1,9-2.43,42.38,42.38,0,0,0,8.48-2.86"/>
  <path class="cls-4" d="M106.05,24.08c-1,4.67,5.23,7.32,4.17,12.72s-4.65,9.39-4.29,13.17a85.25,85.25,0,0,0,1.5,8.73"/>
  <polygon class="cls-2" points="123.98 119.88 126.43 119.21 126.43 124.61 123.98 125.54 123.98 119.88"/>
  <polygon class="cls-2" points="117.81 118.53 120.89 118.11 126.43 119.21 123.98 119.89 117.81 118.53 117.81 118.53"/>
  <polygon class="cls-2" points="137.91 125.93 139.85 125.26 139.85 118.12 137.91 118.5 137.91 125.93"/>
  <path class="cls-2" d="M124,119.89v5.65l-6.17-1.77c.08-.26,0-5.24,0-5.24Z"/>
  <polygon class="cls-2" points="137.91 118.5 137.91 125.93 133.86 125.17 133.86 118.08 137.91 118.5"/>
  <polygon class="cls-2" points="133.86 118.08 135.89 117.66 139.86 118.12 137.91 118.5 133.86 118.08"/>
</svg>
