<?xml version="1.0" encoding="UTF-8" standalone="no"?>
<svg
   id="Laag_1"
   data-name="Laag 1"
   viewBox="0 0 188.9 188.89998"
   version="1.1"
   sodipodi:docname="fiat.svg"
   width="188.89999"
   height="188.89999"
   inkscape:version="1.2.2 (b0a8486541, 2022-12-01)"
   xmlns:inkscape="http://www.inkscape.org/namespaces/inkscape"
   xmlns:sodipodi="http://sodipodi.sourceforge.net/DTD/sodipodi-0.dtd"
   xmlns="http://www.w3.org/2000/svg"
   xmlns:svg="http://www.w3.org/2000/svg">
  <defs
     id="defs1125" />
  <sodipodi:namedview
     id="namedview1123"
     pagecolor="#505050"
     bordercolor="#eeeeee"
     borderopacity="1"
     inkscape:showpageshadow="0"
     inkscape:pageopacity="0"
     inkscape:pagecheckerboard="0"
     inkscape:deskcolor="#505050"
     showgrid="false"
     inkscape:zoom="4"
     inkscape:cx="102.625"
     inkscape:cy="-9.7500001"
     inkscape:window-width="1920"
     inkscape:window-height="1017"
     inkscape:window-x="-8"
     inkscape:window-y="-8"
     inkscape:window-maximized="1"
     inkscape:current-layer="Laag_1" />
  <path
     d="m 0.94,369.57 c -0.32,-0.24 -0.63,-0.5 -0.94,-0.76 0.2,0.15 0.54,0.42 0.94,0.76 z"
     stroke-width="0"
     id="path1088" />
  <circle
     cx="94.449997"
     cy="94.449997"
     r="94.449997"
     fill="#080c80"
     stroke-width="0"
     id="circle1090" />
  <path
     d="m 0.52996526,104.12999 c 1.89000004,1.41 5.41000004,2.36 9.45000004,2.36 4.0400007,0 7.5600007,-0.95 9.4500007,-2.36 1.89,1.41 5.41,2.36 9.45,2.36 4.04,0 7.56,-0.95 9.45,-2.36 1.89,1.41 5.41,2.36 9.45,2.36 4.04,0 7.56,-0.95 9.45,-2.36"
     fill="none"
     stroke="#ffffff"
     stroke-miterlimit="10"
     stroke-width="1.3"
     id="path1092" />
  <path
     d="m 131.52686,103.77644 c 1.89,1.41 5.41,2.36 9.45,2.36 4.04,0 7.56,-0.95 9.45,-2.36 1.89,1.41 5.41,2.36 9.45,2.36 4.04,0 7.56,-0.95 9.45,-2.36 1.89,1.41 5.41,2.36 9.45,2.36 4.04,0 7.56,-0.95 9.45,-2.36"
     fill="none"
     stroke="#ffffff"
     stroke-miterlimit="10"
     stroke-width="1.3"
     id="path1094" />
  <path
     d="m 40.329966,131.04999 c -10.15,0.98 -17.25,3.23 -17.25,5.85 0,3.52 12.85,6.38 28.71,6.38 3.96,0 7.74,-0.18 11.17,-0.5"
     fill="none"
     stroke="#ffffff"
     stroke-miterlimit="10"
     stroke-width="1.3"
     id="path1096" />
  <path
     d="m 71.949966,128.15999 c 2.21,0.43 4.26,0.93 6.12,1.5"
     fill="none"
     stroke="#ffffff"
     stroke-miterlimit="10"
     stroke-width="1.3"
     id="path1098" />
  <path
     d="m 16.109966,129.95999 c 4.19,-2.47 12.05,-4.03 21.66,-4.27"
     fill="none"
     stroke="#ffffff"
     stroke-miterlimit="10"
     stroke-width="1.3"
     id="path1100" />
  <path
     d="m 100.90996,148.79999 c -4.409992,-0.79 -9.279992,-1.35 -14.409994,-1.61 -7.43,-0.38 -14.39,-0.07 -20.25,0.77 -4.45,0.57 -9.34,0.88 -14.47,0.88 -7.44,0 -14.37,-0.66 -20.18,-1.8"
     fill="none"
     stroke="#ffffff"
     stroke-miterlimit="10"
     stroke-width="1.3"
     id="path1102" />
  <path
     d="m 62.959966,155.20999 c 4.41,-0.79 9.28,-1.35 14.41,-1.61 7.43,-0.38 14.390002,-0.07 20.250002,0.77 4.449992,0.57 9.339992,0.88 14.469992,0.88 7.44,0 14.37,-0.66 20.18,-1.8"
     fill="none"
     stroke="#ffffff"
     stroke-miterlimit="10"
     stroke-width="1.3"
     id="path1104" />
  <path
     d="m 150.21996,132.14999 c 7.91,1.72 13.06,4.1 12.9,6.36 -0.26,3.52 -13.29,5.41 -29.1,4.24 -7.42,-0.53 -14.38,-0.36 -20.26,0.37"
     fill="none"
     stroke="#ffffff"
     stroke-miterlimit="10"
     stroke-width="1.3"
     id="path1106" />
  <path
     d="m 171.29996,132.82999 c -4,-2.86 -11.82,-5.12 -21.52,-6.19"
     fill="none"
     stroke="#ffffff"
     stroke-miterlimit="10"
     stroke-width="1.3"
     id="path1108" />
  <path
     d="m 145.68996,62.329994 -51.229992,-48.6 -51.230002,49.12 -20.41,19.57 7.3,7.689999 13.11,-12.579999 V 137.57999 H 96.899968 V 94.079993 h 21.349992 v 43.499997 h 27.44 V 77.009994 l 13.85,13.139999 7.33,-7.729999 -21.19,-20.09 z M 87.229966,115.43999 h -21.35 V 94.089993 h 21.35 z"
     fill="#ffffff"
     stroke-width="0"
     id="path1110" />
  <rect
     x="65.869919"
     y="94.089981"
     width="21.35"
     height="21.35"
     fill="none"
     stroke="#ffffff"
     stroke-miterlimit="10"
     stroke-width="1.02"
     id="rect1112" />
  <polyline
     points="1202.61 90.16 1137.52 28.42 1073.18 90.11"
     fill="none"
     stroke="#080c80"
     stroke-miterlimit="10"
     stroke-width="1.85"
     id="polyline1114"
     transform="translate(-1043.07)" />
  <rect
     x="65.869919"
     y="94.089981"
     width="21.35"
     height="21.35"
     fill="#080c80"
     stroke-width="0"
     id="rect1116" />
  <polygon
     points="1179.7,59.29 1167.47,53.79 1167.47,28.42 1179.7,28.42 "
     fill="#ffffff"
     stroke-width="0"
     id="polygon1118"
     transform="translate(-1043.07)" />
  <polyline
     points="1185.79 114.54 1183.54 118.65 1180.4 116.02 1179.82 126.87 1176.48 127.06 1175.9 132.13 1172.95 131.88 1172.75 135.6 1169.74 135.73"
     fill="none"
     stroke="#080c80"
     stroke-miterlimit="10"
     stroke-width="1.28"
     id="polyline1120"
     transform="translate(-1043.07)" />
</svg>
