<?xml version="1.0" encoding="UTF-8" standalone="no"?>
<svg
   xmlns:dc="http://purl.org/dc/elements/1.1/"
   xmlns:cc="http://creativecommons.org/ns#"
   xmlns:rdf="http://www.w3.org/1999/02/22-rdf-syntax-ns#"
   xmlns:svg="http://www.w3.org/2000/svg"
   xmlns="http://www.w3.org/2000/svg"
   xmlns:sodipodi="http://sodipodi.sourceforge.net/DTD/sodipodi-0.dtd"
   xmlns:inkscape="http://www.inkscape.org/namespaces/inkscape"
   inkscape:version="1.0 (4035a4fb49, 2020-05-01)"
   sodipodi:docname="HydroMT_logo.svg"
   version="1.1"
   viewBox="0 0 188.89 188.89"
   data-name="Laag 1"
   id="Laag_1">
  <metadata
     id="metadata117">
    <rdf:RDF>
      <cc:Work
         rdf:about="">
        <dc:format>image/svg+xml</dc:format>
        <dc:type
           rdf:resource="http://purl.org/dc/dcmitype/StillImage" />
        <dc:title>il_icon hydromt_ I1000642-002_rs_v3</dc:title>
      </cc:Work>
    </rdf:RDF>
  </metadata>
  <sodipodi:namedview
     inkscape:current-layer="Laag_1"
     inkscape:window-maximized="1"
     inkscape:window-y="-8"
     inkscape:window-x="-8"
     inkscape:cy="140.94562"
     inkscape:cx="71.663773"
     inkscape:zoom="2.8862265"
     showgrid="false"
     id="namedview115"
     inkscape:window-height="1057"
     inkscape:window-width="1827"
     inkscape:pageshadow="2"
     inkscape:pageopacity="0"
     guidetolerance="10"
     gridtolerance="10"
     objecttolerance="10"
     borderopacity="1"
     bordercolor="#666666"
     pagecolor="#ffffff" />
  <defs
     id="defs4">
    <style
       id="style2">
      .cls-1, .cls-5 {
        fill: #0057a5;
      }

      .cls-2, .cls-6 {
        fill: #fff;
      }

      .cls-3, .cls-4 {
        fill: none;
      }

      .cls-3, .cls-4, .cls-5, .cls-6 {
        stroke: #0057a5;
        stroke-miterlimit: 10;
      }

      .cls-3, .cls-5, .cls-6 {
        stroke-width: 2px;
      }
    </style>
  </defs>
  <title
     id="title6">il_icon hydromt_ I1000642-002_rs_v3</title>
  <circle
     style="fill:#080c80;fill-opacity:1"
     id="circle8"
     r="94.449997"
     cy="94.449997"
     cx="94.449997"
     class="cls-1" />
  <g
     style="stroke:#080c80;stroke-opacity:1"
     id="g14">
    <path
       style="stroke:#080c80;stroke-opacity:1"
       id="path10"
       d="m 140.49,125.61 -7.49,-1.29 -12.09,-2.71 -10.77,-2.15 h -0.45 L 85.25,114.17 73,111.52 l -8.26,1.7 A 6.79,6.79 0 0 1 61,114.59 c -2.12,0 -8.69,2.76 -13.24,4 -4.55,1.24 -20.13,18.11 -20.13,18.11 v 15 l 83.14,16.42 43.32,-23.4 v -17.2 z m -22.66,-6.75 z"
       class="cls-2" />
    <polyline
       style="stroke:#080c80;stroke-opacity:1"
       id="polyline12"
       points="27.59 136.73 106.76 149.9 154.05 127.52"
       class="cls-3" />
  </g>
  <path
     style="stroke:#080c80;stroke-opacity:1"
     id="path16"
     d="m 40.27,122.6 c 0,0 3.5,4.87 4.95,4.65 1.45,-0.22 -0.11,-2.79 1.79,-3.46 1.9,-0.67 6.8,3.46 6.47,4.35 -0.33,0.89 -7.06,-1.33 -6.6,2.23 0.46,3.56 6.48,0.9 10.94,2.35 4.46,1.45 9.82,-0.9 12.05,0 2.23,0.9 2.9,-0.48 6.25,0.48 3.35,0.96 6,1.3 6.57,4.2 0.57,2.9 1.31,7.6 1.31,7.6"
     class="cls-4" />
  <path
     style="fill:#080c80;fill-opacity:1;stroke:#080c80;stroke-width:1;stroke-miterlimit:10;stroke-dasharray:none;stroke-opacity:1"
     id="path18"
     d="m 113.3,146.17 -7.4,3.73 -11.54,-2.37 v -3.45 a 12.38,12.38 0 0 0 -1.88,-2.56 c -0.39,-0.39 0,-2.76 0,-3.25 a 7.1,7.1 0 0 0 -2.06,-3.55 c -1.38,-1.38 -3.94,-2.27 -5.82,-4.06 -1.88,-1.79 -6.12,-11.24 -8.29,-13.66 -2.17,-2.42 -8.57,-3.34 -8.57,-3.34 l 3.05,-3.07 11.37,2.41 c 0,0 2.93,7.11 2.93,7.25 v 1.24 l 9.27,8.09 c 0,0 3.25,6.9 4.29,7.19 a 32.14,32.14 0 0 1 6.26,3.36 c 0.5,0.59 6.21,5.87 8.39,6.04 z"
     class="cls-5" />
  <path
     style="stroke:#080c80;stroke-opacity:1"
     id="path20"
     d="m 81.21,120.84 c -0.6,1.38 -0.46,3 -1.82,4 -0.88,0.61 -2.35,0.18 -3,1 a 3.65,3.65 0 0 0 -0.54,2 c -0.12,0.89 -0.55,1 -1,1.67 -0.71,0.93 -0.32,2.21 -0.32,3.29"
     class="cls-4" />
  <path
     style="stroke:#080c80;stroke-opacity:1"
     id="path22"
     d="m 90.88,128.29 a 19.56,19.56 0 0 0 3.93,1.25 12.43,12.43 0 0 1 2.83,1 6.26,6.26 0 0 0 5.76,0.47 6.62,6.62 0 0 1 2.32,-0.47 3.84,3.84 0 0 1 1.76,0.46 c 1.52,0.63 3.14,0.27 4.69,0 1.35,-0.24 2.8,0.38 4.12,0 0.22,-0.06 0.34,-0.22 0.61,-0.19 0.54,0.06 1,0.68 1.58,0.83 0.58,0.15 1.43,0.17 2.12,0.29 a 10.21,10.21 0 0 1 2.42,0.84 c 0.73,0.32 1.51,0.56 2.21,0.86 0,0 0,0.06 -0.11,0 a 4.36,4.36 0 0 1 1.73,0.72 11.82,11.82 0 0 0 3.13,1.07 13.2,13.2 0 0 0 2.78,0.82"
     class="cls-4" />
  <path
     style="stroke:#080c80;stroke-opacity:1"
     id="path24"
     d="m 115.84,130.9 c 0.24,0.17 0.8,0.09 1.08,0.09 a 14.44,14.44 0 0 0 2.46,-0.24 c 0.78,-0.14 1.54,-0.37 2.32,-0.47 0.47,-0.06 1,-0.17 1.43,-0.21 1.07,-0.09 2.1,0.21 3.15,-0.18 1.27,-0.47 2.39,-1.29 3.68,-1.73 1.7,-0.57 3.45,-0.37 5.22,-0.53 1.27,-0.12 2.52,-0.34 3.79,-0.52 a 6.92,6.92 0 0 0 1.75,-0.38 2.67,2.67 0 0 0 1.33,-1.44"
     class="cls-4" />
  <polygon
     style="stroke:#080c80;stroke-opacity:1"
     id="polygon26"
     points="77.56,61.68 161.97,78.63 114.9,103.49 30.7,86.92 "
     class="cls-6" />
  <g
     style="stroke:#080c80;stroke-opacity:1"
     id="g74">
    <g
       style="stroke:#080c80;stroke-opacity:1"
       id="g52">
      <line
         style="stroke:#080c80;stroke-opacity:1"
         id="line28"
         y2="103.49"
         x2="114.9"
         y1="78.629997"
         x1="161.97"
         class="cls-4" />
      <line
         style="stroke:#080c80;stroke-opacity:1"
         id="line30"
         y2="101.98"
         x2="107.24"
         y1="77.089996"
         x1="154.28999"
         class="cls-4" />
      <line
         style="stroke:#080c80;stroke-opacity:1"
         id="line32"
         y2="100.48"
         x2="99.589996"
         y1="75.550003"
         x1="146.62"
         class="cls-4" />
      <line
         style="stroke:#080c80;stroke-opacity:1"
         id="line34"
         y2="98.970001"
         x2="91.940002"
         y1="74"
         x1="138.94"
         class="cls-4" />
      <line
         style="stroke:#080c80;stroke-opacity:1"
         id="line36"
         y2="97.459999"
         x2="84.279999"
         y1="72.459999"
         x1="131.27"
         class="cls-4" />
      <line
         style="stroke:#080c80;stroke-opacity:1"
         id="line38"
         y2="95.959999"
         x2="76.629997"
         y1="70.919998"
         x1="123.6"
         class="cls-4" />
      <line
         style="stroke:#080c80;stroke-opacity:1"
         id="line40"
         y2="94.449997"
         x2="68.970001"
         y1="69.379997"
         x1="115.92"
         class="cls-4" />
      <line
         style="stroke:#080c80;stroke-opacity:1"
         id="line42"
         y2="92.940002"
         x2="61.32"
         y1="67.839996"
         x1="108.25"
         class="cls-4" />
      <line
         style="stroke:#080c80;stroke-opacity:1"
         id="line44"
         y2="91.440002"
         x2="53.66"
         y1="66.300003"
         x1="100.58"
         class="cls-4" />
      <line
         style="stroke:#080c80;stroke-opacity:1"
         id="line46"
         y2="89.93"
         x2="46.009998"
         y1="64.760002"
         x1="92.900002"
         class="cls-4" />
      <line
         style="stroke:#080c80;stroke-opacity:1"
         id="line48"
         y2="88.419998"
         x2="38.349998"
         y1="63.220001"
         x1="85.230003"
         class="cls-4" />
      <line
         style="stroke:#080c80;stroke-opacity:1"
         id="line50"
         y2="86.919998"
         x2="30.700001"
         y1="61.68"
         x1="77.559998"
         class="cls-4" />
    </g>
    <g
       style="stroke:#080c80;stroke-opacity:1"
       id="g72">
      <line
         style="stroke:#080c80;stroke-opacity:1"
         id="line54"
         y2="86.919998"
         x2="30.700001"
         y1="103.49"
         x1="114.9"
         class="cls-4" />
      <line
         style="stroke:#080c80;stroke-opacity:1"
         id="line56"
         y2="83.760002"
         x2="36.560001"
         y1="100.38"
         x1="120.78"
         class="cls-4" />
      <line
         style="stroke:#080c80;stroke-opacity:1"
         id="line58"
         y2="80.610001"
         x2="42.41"
         y1="97.269997"
         x1="126.67"
         class="cls-4" />
      <line
         style="stroke:#080c80;stroke-opacity:1"
         id="line60"
         y2="77.449997"
         x2="48.27"
         y1="94.169998"
         x1="132.55"
         class="cls-4" />
      <line
         style="stroke:#080c80;stroke-opacity:1"
         id="line62"
         y2="74.300003"
         x2="54.130001"
         y1="91.059998"
         x1="138.42999"
         class="cls-4" />
      <line
         style="stroke:#080c80;stroke-opacity:1"
         id="line64"
         y2="71.139999"
         x2="59.98"
         y1="87.949997"
         x1="144.32001"
         class="cls-4" />
      <line
         style="stroke:#080c80;stroke-opacity:1"
         id="line66"
         y2="67.989998"
         x2="65.839996"
         y1="84.839996"
         x1="150.2"
         class="cls-4" />
      <line
         style="stroke:#080c80;stroke-opacity:1"
         id="line68"
         y2="64.830002"
         x2="71.699997"
         y1="81.739998"
         x1="156.08"
         class="cls-4" />
      <line
         style="stroke:#080c80;stroke-opacity:1"
         id="line70"
         y2="61.68"
         x2="77.559998"
         y1="78.629997"
         x1="161.97"
         class="cls-4" />
    </g>
  </g>
  <polygon
     style="stroke:#080c80;stroke-opacity:1"
     id="polygon76"
     points="114.9,81.83 30.7,65.26 77.56,40.02 161.97,56.97 "
     class="cls-6" />
  <polygon
     id="polygon78"
     points="103.51,111.71 103.52,111.71 103.52,111.74 "
     class="cls-2" />
  <path
     style="stroke:#080c80;stroke-opacity:1"
     id="path80"
     d="m 143.82,53.32 -3.9,1.84 -5.38,-0.95 3.71,-2 -6,-1.21 -17.35,9.17 -6,-1.19 5.28,8.42 10,9.55 L 162,57 Z m -20.66,5.2 3.62,-1.26 5.49,1.67 -3.69,1.51 z M 131,69 l -6.48,-2.92 3.85,-1.08 6.17,1.6 z m 11.69,-10.8 4.08,-1.47 5,1.1 -3.12,1.53 z"
     class="cls-4" />
  <path
     style="stroke:#080c80;stroke-opacity:1"
     id="path82"
     d="M 92.74,63.44 C 88.22,65.66 66.2,64.6 58.86,64.14 51.52,63.68 47.32,57.33 47.32,57.33 l 17.24,-9.21 31.05,6.11 c 0.08,1.77 1.27,7.17 -2.87,9.21 z"
     class="cls-4" />
  <polygon
     id="polygon84"
     points="103.51,111.71 103.52,111.71 103.52,111.74 "
     class="cls-2" />
  <g
     style="fill:#ffffff;fill-opacity:1;fill-rule:evenodd;stroke:#080c80;stroke-opacity:1"
     id="g90">
    <polygon
       style="fill:#ffffff;fill-opacity:1;fill-rule:evenodd;stroke:#080c80;stroke-opacity:1"
       id="polygon86"
       points="73.77,50.56 109.27,57.52 109.27,88.14 125.38,88.14 91.49,120.04 57.85,88.14 73.77,88.14 "
       class="cls-2" />
    <path
       style="fill:#ffffff;fill-opacity:1;fill-rule:evenodd;stroke:#080c80;stroke-opacity:1"
       id="path88"
       d="m 75.27,52.38 32.5,6.37 v 30.89 h 13.83 l -13.83,13 L 91.49,118 75.39,102.74 61.61,89.64 H 75.27 V 52.38 m -3,-3.64 v 37.9 H 54.09 l 5.46,5.18 13.78,13.06 16.1,15.27 2,1.95 2.07,-1.94 16.27,-15.31 13.83,-13 5.51,-5.19 H 110.77 V 56.29 l -2.43,-0.48 -32.49,-6.37 z"
       class="cls-1" />
  </g>
  <path
     style="fill:#080c80;fill-opacity:1"
     id="path92"
     d="m 102.19,79.47 a 3,3 0 0 1 0.86,-2.09 l -0.59,-0.6 a 2.93,2.93 0 0 1 -2.09,0.87 3,3 0 0 1 -3,-3 h -0.84 a 3,3 0 0 1 -5,2.09 l -0.6,0.6 a 3,3 0 0 1 -2.09,5.05 v 0.84 a 3,3 0 0 1 3,3 2.91,2.91 0 0 1 -0.87,2.09 l 0.6,0.6 a 3,3 0 0 1 5,2.1 h 0.84 a 3,3 0 0 1 5.06,-2.1 l 0.59,-0.59 a 3,3 0 0 1 2.1,-5.06 v -0.84 a 3,3 0 0 1 -2.97,-2.96 z M 97,85.81 a 3,3 0 1 1 3,-3 3,3 0 0 1 -3,3 z"
     class="cls-1" />
  <path
     style="fill:#080c80;fill-opacity:1"
     id="path94"
     d="m 89.38,88.81 a 2.94,2.94 0 0 1 0.19,-2.26 l -0.75,-0.39 a 3,3 0 0 1 -1.73,1.47 3,3 0 0 1 -3.72,-1.92 l -0.81,0.26 a 3,3 0 0 1 -4.17,3.53 l -0.38,0.76 a 3,3 0 0 1 -0.45,5.45 l 0.25,0.8 a 3,3 0 0 1 3.54,4.17 v 0 l 0.75,0.39 a 3,3 0 0 1 5.45,0.45 l 0.8,-0.26 a 3,3 0 0 1 4.17,-3.54 l 0.39,-0.74 a 3,3 0 0 1 -1.47,-1.74 3,3 0 0 1 1.92,-3.72 l -0.25,-0.8 a 3,3 0 0 1 -3.73,-1.91 z m -3,7.62 a 3,3 0 1 1 1.92,-3.72 3,3 0 0 1 -1.94,3.72 z"
     class="cls-1" />
  <polygon
     style="stroke:#080c80;stroke-opacity:1"
     id="polygon96"
     points="114.9,60.17 30.7,43.59 77.56,18.36 161.97,35.3 "
     class="cls-6" />
  <path
     style="stroke:#080c80;stroke-opacity:1"
     id="path98"
     d="M 63.08,50 C 66,47.08 70,44 76,43.79 a 52.39,52.39 0 0 0 16.73,-3.92 31.25,31.25 0 0 1 9,-2.43 42.38,42.38 0 0 0 8.48,-2.86"
     class="cls-4" />
  <path
     style="stroke:#080c80;stroke-opacity:1"
     id="path100"
     d="m 106.05,24.08 c -1,4.67 5.23,7.32 4.17,12.72 -1.06,5.4 -4.65,9.39 -4.29,13.17 a 85.25,85.25 0 0 0 1.5,8.73"
     class="cls-4" />
  <polygon
     id="polygon102"
     points="126.43,124.61 123.98,125.54 123.98,119.88 126.43,119.21 "
     class="cls-2" />
  <polygon
     id="polygon104"
     points="126.43,119.21 123.98,119.89 117.81,118.53 120.89,118.11 "
     class="cls-2" />
  <polygon
     transform="translate(0,0.6929463)"
     id="polygon106"
     points="137.91,118.5 137.91,125.93 139.85,125.26 139.85,118.12 "
     class="cls-2" />
  <path
     id="path108"
     d="m 124,119.89 v 5.65 l -6.17,-1.77 c 0.08,-0.26 0,-5.24 0,-5.24 z"
     class="cls-2" />
  <polygon
     transform="translate(0,0.6929463)"
     id="polygon110"
     points="133.86,118.08 137.91,118.5 137.91,125.93 133.86,125.17 "
     class="cls-2" />
  <polygon
     transform="translate(0,0.6929463)"
     id="polygon112"
     points="137.91,118.5 133.86,118.08 135.89,117.66 139.86,118.12 "
     class="cls-2" />
  <path
     id="path953"
     d="M 86.815634,116.89829 C 84.255451,114.46801 76.163256,106.79466 68.832977,99.846386 l -13.32778,-12.633224 8.642279,-0.03145 8.642279,-0.03145 V 70.062794 c 0,-9.398111 0.01744,-17.087475 0.03875,-17.087475 0.103683,0 1.519329,0.266508 1.706828,0.321326 0.202895,0.05932 0.214369,1.019418 0.214369,17.937974 v 17.8753 l -7.221458,0.0316 -7.221458,0.03159 6.509318,6.186087 c 3.580125,3.402347 10.343907,9.817694 15.030626,14.256314 4.68672,4.43863 8.774655,8.31441 9.084301,8.61284 l 0.562994,0.5426 7.957979,-7.51036 c 4.376886,-4.1307 11.447336,-10.79022 15.712096,-14.798924 l 7.75411,-7.288557 -7.3022,-0.03159 -7.3022,-0.03159 V 74.520504 59.931075 l 0.27562,0.06428 c 0.15159,0.03536 0.59258,0.127925 0.97998,0.205709 l 0.70435,0.141425 V 73.80763 87.272767 l 8.65442,0.03145 8.65442,0.03145 -7.9468,7.472302 c -4.37074,4.109766 -12.19278,11.462751 -17.38231,16.339971 -5.189535,4.87721 -9.738696,9.16047 -10.109248,9.51835 l -0.673733,0.65069 z"
     style="fill:#080c80;fill-opacity:1;fill-rule:evenodd;stroke:#080c80;stroke-width:0.5;stroke-miterlimit:4;stroke-dasharray:none;stroke-opacity:1" />
</svg>
