<?xml version="1.0" encoding="UTF-8"?>
<svg data-name="Laag 1" version="1.1" viewBox="0 0 188.89 188.89" xmlns="http://www.w3.org/2000/svg" xmlns:cc="http://creativecommons.org/ns#" xmlns:dc="http://purl.org/dc/elements/1.1/" xmlns:rdf="http://www.w3.org/1999/02/22-rdf-syntax-ns#">
 <metadata>
  <rdf:RDF>
   <cc:Work rdf:about="">
    <dc:format>image/svg+xml</dc:format>
    <dc:type rdf:resource="http://purl.org/dc/dcmitype/StillImage"/>
    <dc:title>il_icon hydromt_ I1000642-002_rs_v3</dc:title>
   </cc:Work>
  </rdf:RDF>
 </metadata>
 <defs>
  <style>.cls-1, .cls-5 {
        fill: #0057a5;
      }

      .cls-2, .cls-6 {
        fill: #fff;
      }

      .cls-3, .cls-4 {
        fill: none;
      }

      .cls-3, .cls-4, .cls-5, .cls-6 {
        stroke: #0057a5;
        stroke-miterlimit: 10;
      }

      .cls-3, .cls-5, .cls-6 {
        stroke-width: 2px;
      }</style>
 </defs>
 <title>il_icon hydromt_ I1000642-002_rs_v3</title>
 <circle class="cls-1" cx="94.45" cy="94.45" r="94.45" fill="#080c80"/>
 <g stroke="#080c80">
  <path class="cls-2" d="m140.49 125.61-7.49-1.29-12.09-2.71-10.77-2.15h-0.45l-24.44-5.29-12.25-2.65-8.26 1.7a6.79 6.79 0 0 1-3.74 1.37c-2.12 0-8.69 2.76-13.24 4s-20.13 18.11-20.13 18.11v15l83.14 16.42 43.32-23.4v-17.2z"/>
  <polyline class="cls-3" points="27.59 136.73 106.76 149.9 154.05 127.52"/>
  <path class="cls-4" d="m40.27 122.6s3.5 4.87 4.95 4.65-0.11-2.79 1.79-3.46 6.8 3.46 6.47 4.35-7.06-1.33-6.6 2.23 6.48 0.9 10.94 2.35 9.82-0.9 12.05 0 2.9-0.48 6.25 0.48 6 1.3 6.57 4.2 1.31 7.6 1.31 7.6"/>
  <path class="cls-5" d="m113.3 146.17-7.4 3.73-11.54-2.37v-3.45a12.38 12.38 0 0 0-1.88-2.56c-0.39-0.39 0-2.76 0-3.25a7.1 7.1 0 0 0-2.06-3.55c-1.38-1.38-3.94-2.27-5.82-4.06s-6.12-11.24-8.29-13.66-8.57-3.34-8.57-3.34l3.05-3.07 11.37 2.41s2.93 7.11 2.93 7.25v1.24l9.27 8.09s3.25 6.9 4.29 7.19a32.14 32.14 0 0 1 6.26 3.36c0.5 0.59 6.21 5.87 8.39 6.04z" fill="#080c80" stroke-miterlimit="10"/>
  <path class="cls-4" d="m81.21 120.84c-0.6 1.38-0.46 3-1.82 4-0.88 0.61-2.35 0.18-3 1a3.65 3.65 0 0 0-0.54 2c-0.12 0.89-0.55 1-1 1.67-0.71 0.93-0.32 2.21-0.32 3.29"/>
  <path class="cls-4" d="m90.88 128.29a19.56 19.56 0 0 0 3.93 1.25 12.43 12.43 0 0 1 2.83 1 6.26 6.26 0 0 0 5.76 0.47 6.62 6.62 0 0 1 2.32-0.47 3.84 3.84 0 0 1 1.76 0.46c1.52 0.63 3.14 0.27 4.69 0 1.35-0.24 2.8 0.38 4.12 0 0.22-0.06 0.34-0.22 0.61-0.19 0.54 0.06 1 0.68 1.58 0.83s1.43 0.17 2.12 0.29a10.21 10.21 0 0 1 2.42 0.84c0.73 0.32 1.51 0.56 2.21 0.86 0 0 0 0.06-0.11 0a4.36 4.36 0 0 1 1.73 0.72 11.82 11.82 0 0 0 3.13 1.07 13.2 13.2 0 0 0 2.78 0.82"/>
  <path class="cls-4" d="m115.84 130.9c0.24 0.17 0.8 0.09 1.08 0.09a14.44 14.44 0 0 0 2.46-0.24c0.78-0.14 1.54-0.37 2.32-0.47 0.47-0.06 1-0.17 1.43-0.21 1.07-0.09 2.1 0.21 3.15-0.18 1.27-0.47 2.39-1.29 3.68-1.73 1.7-0.57 3.45-0.37 5.22-0.53 1.27-0.12 2.52-0.34 3.79-0.52a6.92 6.92 0 0 0 1.75-0.38 2.67 2.67 0 0 0 1.33-1.44"/>
  <polygon class="cls-6" points="77.56 61.68 161.97 78.63 114.9 103.49 30.7 86.92"/>
  <g stroke="#080c80">
   <line class="cls-4" x1="161.97" x2="114.9" y1="78.63" y2="103.49"/>
   <line class="cls-4" x1="154.29" x2="107.24" y1="77.09" y2="101.98"/>
   <line class="cls-4" x1="146.62" x2="99.59" y1="75.55" y2="100.48"/>
   <line class="cls-4" x1="138.94" x2="91.94" y1="74" y2="98.97"/>
   <line class="cls-4" x1="131.27" x2="84.28" y1="72.46" y2="97.46"/>
   <line class="cls-4" x1="123.6" x2="76.63" y1="70.92" y2="95.96"/>
   <line class="cls-4" x1="115.92" x2="68.97" y1="69.38" y2="94.45"/>
   <line class="cls-4" x1="108.25" x2="61.32" y1="67.84" y2="92.94"/>
   <line class="cls-4" x1="100.58" x2="53.66" y1="66.3" y2="91.44"/>
   <line class="cls-4" x1="92.9" x2="46.01" y1="64.76" y2="89.93"/>
   <line class="cls-4" x1="85.23" x2="38.35" y1="63.22" y2="88.42"/>
   <line class="cls-4" x1="77.56" x2="30.7" y1="61.68" y2="86.92"/>
   <line class="cls-4" x1="114.9" x2="30.7" y1="103.49" y2="86.92"/>
   <line class="cls-4" x1="120.78" x2="36.56" y1="100.38" y2="83.76"/>
   <line class="cls-4" x1="126.67" x2="42.41" y1="97.27" y2="80.61"/>
   <line class="cls-4" x1="132.55" x2="48.27" y1="94.17" y2="77.45"/>
   <line class="cls-4" x1="138.43" x2="54.13" y1="91.06" y2="74.3"/>
   <line class="cls-4" x1="144.32" x2="59.98" y1="87.95" y2="71.14"/>
   <line class="cls-4" x1="150.2" x2="65.84" y1="84.84" y2="67.99"/>
   <line class="cls-4" x1="156.08" x2="71.7" y1="81.74" y2="64.83"/>
   <line class="cls-4" x1="161.97" x2="77.56" y1="78.63" y2="61.68"/>
  </g>
  <polygon class="cls-6" points="114.9 81.83 30.7 65.26 77.56 40.02 161.97 56.97"/>
 </g>
 <polygon class="cls-2" points="103.51 111.71 103.52 111.71 103.52 111.74"/>
 <path class="cls-4" d="m143.82 53.32-3.9 1.84-5.38-0.95 3.71-2-6-1.21-17.35 9.17-6-1.19 5.28 8.42 10 9.55 37.82-19.95zm-20.66 5.2 3.62-1.26 5.49 1.67-3.69 1.51zm7.84 10.48-6.48-2.92 3.85-1.08 6.17 1.6zm11.69-10.8 4.08-1.47 5 1.1-3.12 1.53z" stroke="#080c80"/>
 <path class="cls-4" d="m92.74 63.44c-4.52 2.22-26.54 1.16-33.88 0.7s-11.54-6.81-11.54-6.81l17.24-9.21 31.05 6.11c0.08 1.77 1.27 7.17-2.87 9.21z" stroke="#080c80"/>
 <polygon class="cls-2" points="103.51 111.71 103.52 111.71 103.52 111.74"/>
 <g>
  <g fill="#fff" fill-rule="evenodd" stroke="#080c80">
   <polygon class="cls-2" points="73.77 50.56 109.27 57.52 109.27 88.14 125.38 88.14 91.49 120.04 57.85 88.14 73.77 88.14"/>
   <path class="cls-1" d="m75.27 52.38 32.5 6.37v30.89h13.83l-13.83 13-16.28 15.36-16.1-15.26-13.78-13.1h13.66v-37.26m-3-3.64v37.9h-18.18l5.46 5.18 13.78 13.06 16.1 15.27 2 1.95 2.07-1.94 16.27-15.31 13.83-13 5.51-5.19h-18.34v-30.37l-2.43-0.48-32.49-6.37z"/>
  </g>
  <path class="cls-1" d="m102.19 79.47a3 3 0 0 1 0.86-2.09l-0.59-0.6a2.93 2.93 0 0 1-2.09 0.87 3 3 0 0 1-3-3h-0.84a3 3 0 0 1-5 2.09l-0.6 0.6a3 3 0 0 1-2.09 5.05v0.84a3 3 0 0 1 3 3 2.91 2.91 0 0 1-0.87 2.09l0.6 0.6a3 3 0 0 1 5 2.1h0.84a3 3 0 0 1 5.06-2.1l0.59-0.59a3 3 0 0 1 2.1-5.06v-0.84a3 3 0 0 1-2.97-2.96zm-5.19 6.34a3 3 0 1 1 3-3 3 3 0 0 1-3 3z" fill="#080c80"/>
  <path class="cls-1" d="m89.38 88.81a2.94 2.94 0 0 1 0.19-2.26l-0.75-0.39a3 3 0 0 1-1.73 1.47 3 3 0 0 1-3.72-1.92l-0.81 0.26a3 3 0 0 1-4.17 3.53l-0.38 0.76a3 3 0 0 1-0.45 5.45l0.25 0.8a3 3 0 0 1 3.54 4.17l0.75 0.39a3 3 0 0 1 5.45 0.45l0.8-0.26a3 3 0 0 1 4.17-3.54l0.39-0.74a3 3 0 0 1-1.47-1.74 3 3 0 0 1 1.92-3.72l-0.25-0.8a3 3 0 0 1-3.73-1.91zm-3 7.62a3 3 0 1 1 1.92-3.72 3 3 0 0 1-1.94 3.72z" fill="#080c80"/>
 </g>
 <g stroke="#080c80">
  <polygon class="cls-6" points="114.9 60.17 30.7 43.59 77.56 18.36 161.97 35.3"/>
  <path class="cls-4" d="m63.08 50c2.92-2.92 6.92-6 12.92-6.21a52.39 52.39 0 0 0 16.73-3.92 31.25 31.25 0 0 1 9-2.43 42.38 42.38 0 0 0 8.48-2.86"/>
  <path class="cls-4" d="m106.05 24.08c-1 4.67 5.23 7.32 4.17 12.72s-4.65 9.39-4.29 13.17a85.25 85.25 0 0 0 1.5 8.73"/>
 </g>
 <polygon class="cls-2" points="126.43 124.61 123.98 125.54 123.98 119.88 126.43 119.21"/>
 <polygon class="cls-2" points="126.43 119.21 123.98 119.89 117.81 118.53 120.89 118.11"/>
 <polygon class="cls-2" transform="translate(0 .69295)" points="137.91 118.5 137.91 125.93 139.85 125.26 139.85 118.12"/>
 <path class="cls-2" d="m124 119.89v5.65l-6.17-1.77c0.08-0.26 0-5.24 0-5.24z"/>
 <polygon class="cls-2" transform="translate(0 .69295)" points="133.86 118.08 137.91 118.5 137.91 125.93 133.86 125.17"/>
 <polygon class="cls-2" transform="translate(0 .69295)" points="137.91 118.5 133.86 118.08 135.89 117.66 139.86 118.12"/>
 <path d="m86.816 116.9c-2.5602-2.4303-10.652-10.104-17.983-17.052l-13.328-12.633 17.285-0.0629v-17.087c0-9.3981 0.01744-17.087 0.03875-17.087 0.10368 0 1.5193 0.26651 1.7068 0.32133 0.2029 0.05932 0.21437 1.0194 0.21437 17.938v17.875l-14.443 0.06319 6.5093 6.1861c3.5801 3.4023 10.344 9.8177 15.031 14.256 4.6867 4.4386 8.7747 8.3144 9.0843 8.6128l0.56299 0.5426 7.958-7.5104c4.3769-4.1307 11.447-10.79 15.712-14.799l7.7541-7.2886-14.604-0.06318v-29.179l0.27562 0.06428c0.15159 0.03536 0.59258 0.12792 0.97998 0.20571l0.70435 0.14142v26.93l17.309 0.0629-7.9468 7.4723c-4.3707 4.1098-12.193 11.463-17.382 16.34-5.1895 4.8772-9.7387 9.1605-10.109 9.5184l-0.67373 0.65069z" fill="#080c80" fill-rule="evenodd" stroke="#080c80" stroke-width=".5"/>
</svg>
